<?xml version="1.0" encoding="UTF-8" standalone="no"?>
<!DOCTYPE svg PUBLIC "-//W3C//DTD SVG 1.1//EN" "http://www.w3.org/Graphics/SVG/1.1/DTD/svg11.dtd">
<svg width="100%" height="100%" viewBox="0 0 3111 894" version="1.1" xmlns="http://www.w3.org/2000/svg" xmlns:xlink="http://www.w3.org/1999/xlink" xml:space="preserve" xmlns:serif="http://www.serif.com/" style="fill-rule:evenodd;clip-rule:evenodd;stroke-linejoin:round;stroke-miterlimit:2;">
    <g transform="matrix(4.16667,0,0,4.16667,2332.28,398.48)">
        <path d="M0,-22.215C-0.636,-36.96 -20.105,-31.037 -32.148,-31.844C-32.947,-24.245 -32.925,-17.49 -32.021,-9.873C-23.515,-9.384 -15.656,-9.057 -7.564,-10.109C-1.683,-10.873 0.26,-16.184 0,-22.215M-0.404,20.947C-16.298,4.078 -8.518,-0.248 -31.875,1.569L-32.974,20.657C-37.617,21.49 -42.135,21.604 -46.949,20.613L-46.861,-43.072C-32.186,-43.053 -18.399,-43.819 -4.821,-42.737C8.371,-41.686 15.092,-32.486 14.479,-20.043C14.007,-10.467 10.034,-2.016 -0.668,0.362L14.908,20.48C10.041,21.578 5.178,21.386 -0.404,20.947" style="fill:rgb(44,84,161);fill-rule:nonzero;"/>
    </g>
    <g transform="matrix(4.16667,0,0,4.16667,1448.71,283.865)">
        <path d="M0,32.766C7.012,23.635 5.024,9.442 1.192,0.955C-2.621,-7.488 -29.223,-7.792 -33.509,1.482C-37.461,10.037 -39.12,24.797 -32.284,33.114C-25.872,40.915 -6.356,41.043 0,32.766M1.202,47.741C-15.875,51.842 -45.874,51.793 -49.793,30.434C-51.307,22.181 -51.237,14.086 -50.403,5.851C-47.89,-18.976 -16.579,-19.076 0.968,-14.578C21.698,-9.265 19.579,14.928 17.106,31.395C14.753,39.258 9.501,44.724 1.202,47.741" style="fill:rgb(44,84,161);fill-rule:nonzero;"/>
    </g>
    <g transform="matrix(4.16667,0,0,4.16667,2070.53,331.097)">
        <path d="M0,10.142L-33.744,10.887C-34.618,16.1 -34.548,20.957 -33.91,26.256L3.413,26.582C5.288,28.808 5.281,35.028 3.25,37.225L-47.9,37.171L-47.986,-26.85L3.63,-27.083C4.813,-23.921 4.245,-20.737 3.943,-16.483L-34.006,-15.639C-34.529,-10.552 -34.474,-6.045 -34.053,-0.739L-0.001,-0.21C0.925,2.174 1.449,6.305 0,10.142" style="fill:rgb(44,84,161);fill-rule:nonzero;"/>
    </g>
    <g transform="matrix(4.16667,0,0,4.16667,1202.74,323.333)">
        <path d="M0,19.59C0.913,47.386 -42.44,39.982 -58.474,35.5C-58.839,31.463 -58.303,28.184 -56.397,25.334C-47.113,26.635 -16.201,33.825 -14.959,21.777C-14.509,17.409 -17.248,14.611 -21.935,13.832L-42.889,10.352C-52.698,8.723 -58.551,3.082 -59.108,-5.757C-59.695,-15.071 -54.504,-22.462 -44.303,-24.757C-30.794,-27.796 -16.466,-25.696 -3.057,-22.502C-3.171,-18.24 -3.888,-15.157 -5.699,-12.008C-14.389,-12.989 -44.772,-20.126 -44.31,-7.164C-43.813,6.758 -0.862,-6.648 0,19.59" style="fill:rgb(44,84,161);fill-rule:nonzero;"/>
    </g>
    <g transform="matrix(4.16667,0,0,4.16667,3110.61,316.815)">
        <path d="M0,22.678C-1.634,48.85 -41.451,41.416 -58.355,37.35C-58.226,33.763 -57.423,30.678 -56.003,27.061C-47.467,27.896 -16.128,35.666 -14.573,23.284C-14.078,19.341 -16.582,16.378 -20.923,15.6L-46.469,11.023C-54.38,9.606 -58.159,3.544 -58.636,-3.951C-59.238,-13.398 -54.258,-20.705 -44.397,-22.987C-30.635,-26.172 -16.49,-24.132 -2.525,-20.935C-2.376,-18.117 -3.011,-11.742 -5.858,-10.868C-14.364,-10.87 -44.326,-18.67 -44.064,-5.644C-43.781,8.435 1.719,-4.856 0,22.678" style="fill:rgb(44,84,161);fill-rule:nonzero;"/>
    </g>
    <g transform="matrix(4.16667,0,0,4.16667,2760.04,494.997)">
        <path d="M0,-65.718C5.072,-67.012 9.325,-66.575 14.157,-65.956L13.902,-21.718C13.849,-12.444 7.879,-4.971 -1.111,-2.883C-16.534,0.701 -46.797,1.294 -47.336,-21.58C-47.691,-36.647 -47.761,-50.955 -47.159,-66.011C-42.535,-66.617 -38.28,-66.561 -33.361,-66.001L-33.116,-23.201C-33.045,-10.93 -17.062,-11.353 -8.761,-12.978C-3,-14.106 0.056,-18.776 0.049,-24.431L0,-65.718Z" style="fill:rgb(44,84,161);fill-rule:nonzero;"/>
    </g>
    <g transform="matrix(4.16667,0,0,4.16667,1768.66,484.326)">
        <path d="M0,-63.299C5.547,-64.177 9.867,-64.094 15.184,-63.278L-10.789,0.041C-16.965,1.04 -22.713,0.969 -29.081,0.151L-55.464,-63.245C-50.489,-64.076 -45.584,-64.339 -40.5,-63.242L-20.195,-14.188L0,-63.299Z" style="fill:rgb(44,84,161);fill-rule:nonzero;"/>
    </g>
    <g transform="matrix(4.0614,-0.930682,-0.930682,-4.0614,2535.27,472.717)">
        <path d="M-7.067,-0.834C-11.611,-1.855 -16.075,0.279 -21.114,1.745L-7.067,63.818C-1.999,63.306 2.078,62.372 6.919,60.709L-7.067,-0.834Z" style="fill:rgb(44,84,161);fill-rule:nonzero;"/>
    </g>
    <g transform="matrix(4.16667,0,0,4.16667,781.108,504.895)">
        <path d="M0,0.983C0.186,0.332 0.601,-0.238 1.186,-0.583C1.253,0.081 0.943,1.566 0,0.983" style="fill:rgb(75,135,199);fill-rule:nonzero;"/>
    </g>
    <g transform="matrix(1,0,0,1,1371.5,242.712)">
        <g transform="matrix(221.451,0,0,221.451,681.926,494.714)">
        </g>
        <text x="484.871px" y="494.714px" style="font-family:'Helvetica';font-size:221.451px;fill:rgb(50,104,176);">A<tspan x="620.399px " y="494.714px ">I</tspan></text>
    </g>
    <g transform="matrix(0,4.16667,4.16667,0,1443.45,319.044)">
        <path d="M87.332,-87.34C85.532,-62.648 86.473,-25.09 86.261,-0.003C86.465,25.182 85.551,62.504 87.332,87.332C89.105,62.64 88.204,25.084 88.403,-0.003C88.185,-25.189 89.14,-62.511 87.332,-87.34" style="fill:rgb(52,104,176);fill-rule:nonzero;"/>
    </g>
    <g transform="matrix(0,4.16667,4.16667,0,2455.23,319.044)">
        <path d="M87.332,-87.34C85.532,-62.648 86.473,-25.09 86.261,-0.003C86.465,25.182 85.551,62.504 87.332,87.332C89.105,62.64 88.204,25.084 88.403,-0.003C88.185,-25.189 89.14,-62.511 87.332,-87.34" style="fill:rgb(52,104,176);fill-rule:nonzero;"/>
    </g>
    <g transform="matrix(4.16667,0,0,4.16667,576.658,870.363)">
        <path d="M0,-171.904C-19.825,-168.125 -33.281,-163.926 -42.237,-159.788L-42.237,-134.349C-21.993,-128.592 17.536,-117.101 20.844,-100.381C24.997,-79.383 3.692,-64.086 -26.054,-58.535C-30.542,-57.697 -36.081,-57.255 -42.237,-57.101L-42.237,4.589C-41.194,5.059 -40.601,5.307 -40.601,5.307L-40.243,5.455L-39.885,5.307C-39.885,5.307 53.112,-33.092 57.912,-118.89L57.912,-175.014C46.625,-177.112 28.619,-177.359 0,-171.904" style="fill:rgb(50,104,176);fill-rule:nonzero;"/>
    </g>
    <g transform="matrix(4.16667,0,0,4.16667,355.506,216.947)">
        <path d="M0,19.181C1.937,19.983 6.668,21.277 12.834,23.039L12.834,-3.858C-11.123,6.469 -6.157,16.632 0,19.181" style="fill:rgb(44,84,161);fill-rule:nonzero;"/>
    </g>
    <g transform="matrix(-2.69749,3.17563,3.17563,2.69749,458.578,714.461)">
        <path d="M40.381,-87.284C57.866,-35.429 40.499,18.314 40.499,18.314L40.381,18.682L-7.344,-21.858C9.813,-40.626 30.605,-72.022 40.381,-87.284" style="fill:rgb(44,84,161);fill-rule:nonzero;"/>
    </g>
    <g transform="matrix(4.16667,0,0,4.16667,400.669,560.086)">
        <path d="M0,-36.108L0,0C39.103,-14.615 30.785,-22.417 30.785,-22.417C30.785,-22.417 26.413,-27.275 0,-36.108" style="fill:rgb(50,104,176);fill-rule:nonzero;"/>
    </g>
    <g transform="matrix(4.16667,0,0,4.16667,410.47,123.393)">
        <path d="M0,-29.614C-0.123,-29.614 -0.235,-29.601 -0.358,-29.601C-0.481,-29.601 -0.592,-29.614 -0.716,-29.614C-1.269,-29.614 -1.803,-29.601 -2.352,-29.598L-2.352,-2.754C26.503,-9.861 54.555,-10.031 81.68,-3.698C88.111,-2.197 93.412,-0.984 97.797,0L97.797,-4.415C97.797,-9.815 62.998,-29.614 0,-29.614" style="fill:rgb(50,104,176);fill-rule:nonzero;"/>
    </g>
    <g transform="matrix(4.16667,0,0,4.16667,351.613,482.838)">
        <path d="M0,-85.757C4.61,-87.184 9.198,-88.416 13.768,-89.492L13.768,-115.867C13.645,-115.868 13.534,-115.881 13.41,-115.881C-49.588,-115.881 -84.387,-96.081 -84.387,-90.681L-84.387,-25.883C-83.409,-8.407 -78.771,7.101 -72.006,20.721C-56.303,24.169 -19.507,30.124 11.025,18.823C11.975,18.471 12.872,18.127 13.768,17.783L13.768,-16.891C6.03,-19.531 -3.707,-22.542 -15.997,-25.907C-67.387,-39.975 -33.01,-75.541 0,-85.757" style="fill:rgb(44,84,161);fill-rule:nonzero;"/>
    </g>
</svg>
